<svg fill="#61dafb" xmlns="http://www.w3.org/2000/svg" width="30" height="30"><path d="M10.68 4.182c-.611 0-1.178.136-1.68.425-1.569.906-2.166 3.114-1.85 5.862C4.613 11.569 3 13.189 3 15c0 1.811 1.613 3.431 4.15 4.531-.316 2.748.281 4.956 1.85 5.862.501.289 1.068.425 1.68.425 1.302 0 2.808-.653 4.32-1.775 1.512 1.122 3.02 1.775 4.322 1.775.611 0 1.178-.136 1.68-.425 1.569-.906 2.166-3.114 1.85-5.862C25.388 18.431 27 16.811 27 15c0-1.811-1.613-3.431-4.15-4.531.316-2.748-.281-4.956-1.85-5.862-.501-.29-1.068-.425-1.68-.425-1.302 0-2.808.653-4.32 1.775-1.512-1.122-3.018-1.775-4.32-1.775zm0 1.75c.781 0 1.815.415 2.937 1.185a19.5 19.5 0 0 0-1.928 2.12 19.666 19.666 0 0 0-2.84.618c-.004-.06-.015-.125-.019-.185-.107-1.78.284-3.107 1.045-3.547.225-.13.488-.191.805-.191zm8.64 0c.316 0 .58.061.805.191.761.439 1.152 1.767 1.045 3.547-.004.06-.015.124-.02.185a19.621 19.621 0 0 0-2.841-.619 19.588 19.588 0 0 0-1.926-2.119c1.122-.77 2.156-1.185 2.937-1.185zM15 8.229c.271.246.54.507.813.792C15.543 9.012 15.274 9 15 9c-.274 0-.541.012-.81.021.271-.285.54-.546.81-.792zm0 2.521c.829 0 1.614.046 2.36.127.454.618.902 1.27 1.322 1.998A21.8 21.8 0 0 1 19.754 15a21.83 21.83 0 0 1-1.072 2.127 21.394 21.394 0 0 1-1.319 1.99 21.602 21.602 0 0 1-4.723.006 21.404 21.404 0 0 1-1.322-1.996A21.762 21.762 0 0 1 10.246 15a21.8 21.8 0 0 1 1.072-2.125c.42-.725.866-1.376 1.319-1.992A21.758 21.758 0 0 1 15 10.75zm4.746.541c.397.096.778.2 1.137.314-.081.368-.18.742-.293 1.12-.129-.242-.254-.484-.393-.725-.143-.248-.302-.47-.45-.709zm-9.494.002c-.149.238-.307.46-.45.707-.138.24-.263.483-.392.725a16.291 16.291 0 0 1-.295-1.121 15.95 15.95 0 0 1 1.137-.311zm-2.783.953c.21.89.503 1.812.879 2.752a19.618 19.618 0 0 0-.877 2.746C5.729 16.904 4.75 15.856 4.75 15c0-.879.952-1.88 2.547-2.678.054-.027.116-.05.172-.076zm15.06.01c1.742.84 2.721 1.888 2.721 2.744 0 .879-.952 1.88-2.547 2.678-.054.027-.116.05-.172.076-.21-.89-.5-1.813-.877-2.754.375-.937.665-1.857.875-2.744zM15 13a2 2 0 1 0-.001 3.999A2 2 0 0 0 15 13zm-5.59 4.275c.129.242.256.484.395.725.143.248.3.47.449.709-.397-.096-.778-.2-1.137-.314.081-.368.18-.741.293-1.12zm11.18.002c.112.379.214.752.295 1.12-.365.115-.746.217-1.137.31.149-.238.307-.46.45-.707.138-.24.263-.482.392-.723zM8.85 20.145c.88.263 1.832.474 2.841.619a19.587 19.587 0 0 0 1.926 2.12c-1.122.77-2.156 1.186-2.937 1.186a1.57 1.57 0 0 1-.805-.193c-.761-.439-1.152-1.765-1.045-3.545.004-.061.015-.126.02-.187zm12.3 0c.005.061.016.126.02.187.107 1.78-.284 3.105-1.045 3.545-.225.13-.488.193-.805.193-.781 0-1.815-.415-2.937-1.185a19.602 19.602 0 0 0 1.928-2.121 19.619 19.619 0 0 0 2.84-.62zm-6.962.834c.27.009.538.021.812.021s.543-.012.813-.021c-.273.285-.542.546-.813.792-.271-.246-.54-.507-.813-.792z"/></svg>